<?xml version="1.0" standalone="no"?>
<!DOCTYPE svg PUBLIC "-//W3C//DTD SVG 1.1//EN" "http://www.w3.org/Graphics/SVG/1.1/DTD/svg11.dtd" >
<!--
2013-9-30: Created.
-->
<svg>
<metadata>
Created by iconfont
</metadata>
<defs>

<font id="iconfont" horiz-adv-x="1024" >
  <font-face
    font-family="iconfont"
    font-weight="500"
    font-stretch="normal"
    units-per-em="1024"
    ascent="896"
    descent="-128"
  />
    <missing-glyph />
    
    <glyph glyph-name="x" unicode="x" horiz-adv-x="1001"
d="M281 543q-27 -1 -53 -1h-83q-18 0 -36.5 -6t-32.5 -18.5t-23 -32t-9 -45.5v-76h912v41q0 16 -0.5 30t-0.5 18q0 13 -5 29t-17 29.5t-31.5 22.5t-49.5 9h-133v-97h-438v97zM955 310v-52q0 -23 0.5 -52t0.5 -58t-10.5 -47.5t-26 -30t-33 -16t-31.5 -4.5q-14 -1 -29.5 -0.5
t-29.5 0.5h-32l-45 128h-439l-44 -128h-29h-34q-20 0 -45 1q-25 0 -41 9.5t-25.5 23t-13.5 29.5t-4 30v167h911zM163 247q-12 0 -21 -8.5t-9 -21.5t9 -21.5t21 -8.5q13 0 22 8.5t9 21.5t-9 21.5t-22 8.5zM316 123q-8 -26 -14 -48q-5 -19 -10.5 -37t-7.5 -25t-3 -15t1 -14.5
t9.5 -10.5t21.5 -4h37h67h81h80h64h36q23 0 34 12t2 38q-5 13 -9.5 30.5t-9.5 34.5q-5 19 -11 39h-368zM336 498v228q0 11 2.5 23t10 21.5t20.5 15.5t34 6h188q31 0 51.5 -14.5t20.5 -52.5v-227h-327z" />
    

    
    <glyph glyph-name="dingdan" unicode="&#58922;" d="M703.900608 383.916307 319.963392 383.916307C302.302272 383.916307 287.96864 369.58265 287.96864 351.921536 287.96864 334.228429 302.302272 319.926765 319.963392 319.926765L703.900608 319.926765C721.561728 319.926765 735.89536 334.228429 735.89536 351.921536 735.89536 369.58265 721.561728 383.916307 703.900608 383.916307L703.900608 383.916307ZM703.900608 191.947693 319.963392 191.947693C302.302272 191.947693 287.96864 177.646029 287.96864 159.952922 287.96864 142.259815 302.302272 127.958151 319.963392 127.958151L703.900608 127.958151C721.561728 127.958151 735.89536 142.259815 735.89536 159.952922 735.89536 177.646029 721.561728 191.947693 703.900608 191.947693L703.900608 191.947693ZM735.89536 639.874458C700.573184 639.874458 671.905856 668.541766 671.905856 703.863994L671.905856 831.843072 863.874432 639.874458 735.89536 639.874458 735.89536 639.874458ZM863.874432-0.020921C863.874432-35.343149 835.207168-64.010464 799.884928-64.010464L223.979072-64.010464C188.656832-64.010464 159.989568-35.343149 159.989568-0.020921L159.989568 767.85353C159.989568 803.175757 188.656832 831.843072 223.979072 831.843072L607.02048 831.843072C606.444544 755.215597 607.916288 703.863994 607.916288 703.863994 607.916288 633.187552 665.218944 575.884922 735.89536 575.884922L863.874432 575.884922 863.874432-0.020921 863.874432-0.020921ZM671.905856 895.832608 671.905856 894.936755C667.810496 894.936755 650.725312 896.504499 607.916288 895.832608L223.979072 895.832608C153.302656 895.832608 96 838.529978 96 767.85353L96-0.020921C96-70.697369 153.302656-128 223.979072-128L799.884928-128C870.561344-128 927.864-70.697369 927.864-0.020921L927.864 639.874458 671.905856 895.832608 671.905856 895.832608Z"  horiz-adv-x="1024" />

    
    <glyph glyph-name="111" unicode="&#58904;" d="M779.81058406-2.649531560000014L241.35453781-2.649531560000014c-82.57121625 0-149.74775062 67.17557531-149.74775062 149.74775062L91.60678625 518.63319844c0 82.57121625 67.17653438 149.74775062 149.74775062 149.74775062l66.0953475 0 0 12.22882875c0 45.49235625 37.01170594 82.50406219 82.50406219 82.50406219l242.69625188 0c45.49331531 0 82.50406219-37.01170594 82.50406218-82.50406219l0-12.22882875 64.65632344 0c82.57121625 0 149.74871063-67.17653438 149.74871063-149.74775062l0-371.53593844C929.55929469 64.52604374999999 862.38180125-2.649531560000014 779.81058406-2.649531560000014zM241.35453781 631.92566625c-62.46996563 0-113.29246781-50.82250219-113.29246781-113.29246781l0-371.53593844c0-62.46900563 50.82250219-113.29246781 113.29246781-113.29246781l538.45604719 0c62.46996563 0 113.29342687 50.82346125 113.29342687 113.29246781L893.10401187 518.63319844c0 62.46996563-50.82346125 113.29246781-113.29342687 113.29246781l-82.88396438 0c-10.066455 0-18.22764187 8.16118688-18.22764187 18.22764187l0 30.45647063c0 25.39110469-20.65767375 46.04877938-46.04877938 46.04877937l-242.69625187 0c-25.39110469 0-46.04877938-20.65767375-46.04877938-46.04877937l0-30.45647063c0-10.066455-8.16118688-18.22764187-18.22764187-18.22764187L241.35453781 631.92566625zM510.58256094 106.45057874999998c-109.71985031 0-198.98348906 89.26363969-198.98348906 198.98253 0 109.72080937 89.26363969 198.98444813 198.98348906 198.98444813s198.98348906-89.26363969 198.98348906-198.98444813C709.56605 195.71421750000002 620.30241125 106.45057874999998 510.58256094 106.45057874999998zM510.58256094 467.96227312c-89.61859875 0-162.52820625-72.91056656-162.52820625-162.52916531 0-89.61763969 72.9096075-162.52724625 162.52820625-162.52724625s162.52820625 72.9096075 162.52820625 162.52724625C673.11076719 395.05266656 600.20115969 467.96227312 510.58256094 467.96227312zM510.58256094 106.45057874999998c-109.71985031 0-198.98348906 89.26363969-198.98348906 198.98253 0 109.72080937 89.26363969 198.98444813 198.98348906 198.98444813s198.98348906-89.26363969 198.98348906-198.98444813C709.56605 195.71421750000002 620.30241125 106.45057874999998 510.58256094 106.45057874999998zM510.58256094 467.96227312c-89.61859875 0-162.52820625-72.91056656-162.52820625-162.52916531 0-89.61763969 72.9096075-162.52724625 162.52820625-162.52724625s162.52820625 72.9096075 162.52820625 162.52724625C673.11076719 395.05266656 600.20115969 467.96227312 510.58256094 467.96227312zM240.15726969 457.25497313c-30.13796625 0-54.65606344 24.51905625-54.65606344 54.65606343s24.51905625 54.65606344 54.65606344 54.65606344 54.65606344-24.51905625 54.65606343-54.65606344S270.29427688 457.25497313 240.15726969 457.25497313zM240.15726969 530.11181625c-10.03575563 0-18.20077969-8.16502406-18.20077969-18.20077969s8.16502406-18.20077969 18.20077969-18.20077968 18.20077969 8.16502406 18.20077968 18.20077968S250.19302531 530.11181625 240.15726969 530.11181625zM240.15726969 457.25497313c-30.13796625 0-54.65606344 24.51905625-54.65606344 54.65606343s24.51905625 54.65606344 54.65606344 54.65606344 54.65606344-24.51905625 54.65606343-54.65606344S270.29427688 457.25497313 240.15726969 457.25497313zM240.15726969 530.11181625c-10.03575563 0-18.20077969-8.16502406-18.20077969-18.20077969s8.16502406-18.20077969 18.20077969-18.20077968 18.20077969 8.16502406 18.20077968 18.20077968S250.19302531 530.11181625 240.15726969 530.11181625z"  horiz-adv-x="1024" />

    
    <glyph glyph-name="dingdan1" unicode="&#58993;" d="M666.647814-23.43293l36.840186 0c81.372279 0 155.290791 65.964651 155.290791 147.360744l0 32.863256-192.130977 0L666.647814-23.43293zM806.030884 823.915163 216.564093 823.915163C175.88986 823.915163 142.883721 790.932837 142.883721 750.234791l0-736.827535c0-40.698047 32.982326-69.703442 73.680372-69.703442l380.332651 0L596.896744 230.495256l282.814512 0L879.711256 750.234791C879.711256 790.932837 846.72893 823.915163 806.030884 823.915163zM785.074605 373.831442 237.615628 373.831442 237.615628 467.348837l547.482791 0L785.098419 373.831442zM785.074605 586.918698 237.615628 586.918698 237.615628 680.436093l547.482791 0L785.098419 586.918698z"  horiz-adv-x="1024" />

    
    <glyph glyph-name="xiaoxi" unicode="&#58907;" d="M506.480838 1.713711l-83.59683 0L193.004352-123.685579 193.004352 106.190032c-114.594533 80.443168-188.097418 195.893102-188.097418 334.417655 0 242.374995 224.571311 438.876787 501.573905 438.876787 277.00765 0 501.577949-196.501793 501.577949-438.876787C1008.077998 198.190226 783.511743 1.713711 506.480838 1.713711L506.480838 1.713711 506.480838 1.713711zM506.480838 816.806568c-242.374995 0-438.914199-168.431264-438.914199-376.19787 0-127.489261 74.966978-245.444735 188.139885-313.476486l0-139.338499 167.154227 76.617115 83.600875 0c242.374995 0 438.919254 168.431264 438.919254 376.19787C945.401103 648.394516 748.860888 816.806568 506.480838 816.806568L506.480838 816.806568 506.480838 816.806568zM757.303685 377.911581c-34.651866 0-62.721384 28.064462-62.721384 62.716328 0 34.651866 28.069518 62.721384 62.721384 62.721384 34.609399 0 62.678917-28.069518 62.678917-62.721384C819.982602 405.976043 791.912073 377.911581 757.303685 377.911581L757.303685 377.911581 757.303685 377.911581zM506.480838 377.911581c-34.651866 0-62.716328 28.064462-62.716328 62.716328 0 34.651866 28.064462 62.721384 62.716328 62.721384 34.651866 0 62.721384-28.069518 62.721384-62.721384C569.202222 405.976043 541.132704 377.911581 506.480838 377.911581L506.480838 377.911581 506.480838 377.911581zM255.687313 377.911581c-34.613444 0-62.681951 28.064462-62.681951 62.697117 0 34.633666 28.068507 62.721384 62.681951 62.721384 34.651866 0 62.716328-28.069518 62.716328-62.721384C318.403642 405.957843 290.314912 377.911581 255.687313 377.911581L255.687313 377.911581 255.687313 377.911581zM255.687313 377.911581"  horiz-adv-x="1024" />

    
    <glyph glyph-name="aixin" unicode="&#59187;" d="M961.430966 524.224672c0 72.808236-28.353768 141.259234-79.837326 192.742792-51.482535 51.482535-119.93251 79.83528-192.741769 79.83528-65.552995 0-127.567397-22.994714-176.85187-65.150836-49.284473 42.156122-111.298875 65.150836-176.85187 65.150836-72.808236 0-141.259234-28.353768-192.741769-79.836303C90.922802 665.482883 62.569034 597.031884 62.569034 524.224672c0-72.808236 28.353768-141.259234 79.836303-192.741769 0 0 0 0 0.001023-0.001023 0 0 0 0 0.001023-0.001023l353.703741-353.703741c4.387937-4.387937 10.139941-6.580882 15.889899-6.580882 5.750981 0 11.501962 2.192945 15.889899 6.580882l353.703741 353.703741c0.005117 0.005117 0.008186 0.010233 0.013303 0.01535C933.081291 382.977717 961.430966 451.422575 961.430966 524.224672zM174.185134 685.186643c88.75851 88.75544 233.172597 88.753393 321.92599-0.001023 6.03239-6.033413 14.642488-7.918343 22.286586-5.65479 3.475148 1.028423 6.749728 2.913353 9.492188 5.655813 88.75544 88.75544 233.17055 88.753393 321.923944-0.001023 42.99421-42.99421 66.672492-100.157117 66.672492-160.960948s-23.678282-117.967762-66.673515-160.961972l-337.813842-337.813842-337.813842 337.813842C85.429695 452.017116 85.429695 596.432227 174.185134 685.186643z"  horiz-adv-x="1024" />

    
    <glyph glyph-name="xiaoxi1" unicode="&#58962;" d="M508.881455 891.298909c69.748364 0.768 135.284364-11.869091 196.631273-37.934545 61.300364-26.065455 115.176727-61.533091 161.512727-106.356364 46.382545-44.846545 82.944-97.722182 109.824-158.650182 26.833455-60.951273 40.610909-126.277818 41.378909-196.049455 0.744727-65.931636-10.542545-128-33.931636-186.228364-23.365818-58.274909-55.924364-109.824-97.722182-154.670545-41.751273-44.823273-90.833455-81.826909-147.153455-110.964364-56.343273-29.114182-117.085091-47.127273-182.225455-54.016-16.896-2.304-34.909091-4.212364-54.062545-5.771636-19.153455-1.512727-40.424727-2.676364-63.813818-3.421091-23.365818-0.768-49.454545-0.768-78.173091 0-28.741818 0.744727-61.137455 3.095273-97.163636 6.912-79.709091 7.656727-138.938182 17.640727-177.640727 29.882182-38.725818 12.264727-54.225455 19.153455-46.568727 20.712727 40.634182 6.888727 75.496727 17.989818 104.634182 33.349818 15.313455 8.424727 21.643636 20.503273 18.944 36.212364-2.676364 15.709091-10.146909 30.487273-22.411636 44.264727-39.098182 42.914909-70.702545 92.928-94.859636 150.039273-24.133818 57.088-36.980364 118.621091-38.516364 184.529455-0.768 69.748364 11.892364 135.284364 37.934545 196.608 26.065455 61.323636 61.696 114.967273 106.914909 160.954182 45.218909 46.010182 98.490182 82.408727 159.813818 109.218909C373.597091 876.730182 439.109818 890.554182 508.881455 891.298909L508.881455 891.298909zM733.067636 385.419636c0-19.921455 6.888727-36.980364 20.736-51.176727 13.777455-14.173091 30.603636-21.248 50.571636-21.248 19.898182 0 36.980364 7.074909 51.176727 21.248 14.173091 14.173091 21.248 31.232 21.248 51.176727s-7.074909 36.794182-21.248 50.571636c-14.196364 13.800727-31.278545 20.689455-51.176727 20.689455-19.944727 0-36.794182-6.888727-50.571636-20.689455C739.956364 422.213818 733.067636 405.341091 733.067636 385.419636L733.067636 385.419636zM444.485818 385.419636c0-19.921455 7.284364-37.189818 21.853091-51.758545 14.545455-14.545455 31.790545-21.829818 51.735273-21.829818 20.712727 0 38.144 7.284364 52.317091 21.829818 14.173091 14.568727 21.248 31.837091 21.248 51.758545 0 20.689455-7.074909 38.120727-21.248 52.317091-14.173091 14.149818-31.604364 21.248-52.317091 21.248-19.921455 0-37.189818-7.098182-51.735273-21.248C451.770182 423.540364 444.485818 406.109091 444.485818 385.419636L444.485818 385.419636zM159.348364 386.56c0-19.921455 7.074909-37.189818 21.271273-51.735273 14.173091-14.568727 31.232-21.829818 51.153455-21.829818 20.689455 0 38.120727 7.284364 52.317091 21.829818 14.173091 14.545455 21.271273 31.790545 21.271273 51.735273s-7.098182 36.980364-21.271273 51.176727c-14.173091 14.149818-31.604364 21.248-52.317091 21.248-19.921455 0-36.980364-7.098182-51.153455-21.248C166.423273 423.540364 159.348364 406.504727 159.348364 386.56L159.348364 386.56z"  horiz-adv-x="1024" />

    
    <glyph glyph-name="wode" unicode="&#58977;" d="M487.11393436 327.44075988c-239.05705488 0-433.62084086-130.46331387-433.62084086-291.84567897 0-55.0509937 36.95203687-76.16644335 145.54577788-92.75715378 84.46179857-12.82009443 184.00606116-12.82009443 290.33743258-12.82009444 108.59374101 0 215.67923562 0 291.84567896 12.82009444 107.08549461 17.34483364 144.0375315 37.70616007 144.0375315 92.75715378C924.50539122 196.97744604000002 726.92511243 327.44075988 487.11393436 327.44075988L487.11393436 327.44075988zM489.37630396 601.1874820400001m-236.04056206 0a46.10167228 46.10167228 0 1 1 472.08112413 0 46.10167228 46.10167228 0 1 1-472.08112413 0Z"  horiz-adv-x="1024" />

    
    <glyph glyph-name="kezhuliangren" unicode="&#58917;" d="M370.56 409.792c-107.2 0-194.112 86.144-194.112 192.448 0 106.24 86.912 192.384 194.048 192.384 107.2 0 194.112-86.144 194.112-192.384 0-106.24-86.912-192.448-194.112-192.448m105.024-9.792a227.2 227.2 0 0 1 124.352 202.24c0 125.568-102.656 227.392-229.376 227.392-126.656 0-229.312-101.824-229.312-227.392 0-92.992 56.256-172.928 136.896-208.192C124.16 348.992 10.112 211.904 0.64 47.04a17.28 17.28 0 0 1-0.64-4.608v-35.008c0-9.6 7.872-17.472 17.664-17.472a17.6 17.6 0 0 1 17.664 17.472v17.536c0 193.28 157.952 349.824 352.832 349.824s352.896-156.608 352.896-349.824v-17.536c0-9.6 7.872-17.472 17.664-17.472a17.6 17.6 0 0 1 17.6 17.472v35.008a17.6 17.6 0 0 1-0.64 4.672c-9.92 172.8-134.848 315.2-300.16 352.896z m547.2-352.896c-9.92 172.8-134.912 315.2-300.16 352.896a227.2 227.2 0 0 1 124.352 202.24c0 109.44-78.016 200.768-181.824 222.464-3.2 3.072-36.864 4.928-41.6 4.928h-5.952a17.6 17.6 0 0 1-17.664-17.472c0-9.6 7.936-17.536 17.664-17.536h17.664v-0.768c98.88-8.832 176.448-91.264 176.448-191.616 0-100.416-77.568-182.784-176.448-191.616v-0.832h-17.664a17.6 17.6 0 0 1-17.664-17.472c0-9.664 7.936-17.536 17.664-17.536h17.664c194.88 0 352.832-156.608 352.832-349.824v-17.536c0-9.6 7.936-17.472 17.664-17.472a17.6 17.6 0 0 1 17.664 17.472v35.008a17.408 17.408 0 0 1-0.64 4.672z"  horiz-adv-x="1024" />

    
    <glyph glyph-name="icon-liangren" unicode="&#58963;" d="M992 179.90437499999996H713.4875v28.9378125c-35.2490625 94.7615625-85.8946875 81.0534375-170.1009375 124.7878125 41.503125 73.0003125 96.009375 125.3325 194.034375 125.3325 172.0584375 0 245.113125-76.485 253.7071875-223.355625h0.87v-55.7034375zM737.4228125 467.5565625c-40.306875 0-77.5696875 13.381875-107.870625 36.12 19.1475 37.0996875 30.02625 79.3125 30.02625 124.2440625 0 61.0340625-20.0175 117.170625-53.6371875 161.8865625 33.346875 35.248125 79.9125 57.11625 131.4778125 57.11625 101.450625 0 183.699375-84.85875 183.699375-189.628125s-82.246875-189.7378125-183.6984375-189.7378125z m-358.15125-64.84125c-123.0478125 0-222.8109375 99.765-222.8109375 222.8109375S256.22375 848.3371875 379.2715625 848.3371875c123.0459375 0 222.8109375-99.763125 222.8109375-222.8109375S502.3175 402.7153125 379.2715625 402.7153125z m-0.980625-50.6953125c255.6675 0 354.3440625-186.585 354.3440625-394.9246875l-19.1475 0.215625v-0.215625H45.055625v5.113125l-13.055625 0.10875c0 208.3425 90.57 389.70375 346.2909375 389.70375z"  horiz-adv-x="1038" />

    
    <glyph glyph-name="gengduo" unicode="&#58973;" d="M929.714 804.571c-36.571 36.571-85.714 58.286-140.571 58.286-56 0-105.143-21.714-141.714-58.286-35.429-35.429-58.286-85.714-58.286-140.571s22.857-105.143 58.286-140.571c36.571-36.571 85.714-59.429 141.714-59.429 54.857 0 104 22.857 140.571 59.429 35.429 35.429 58.286 85.714 58.286 140.571s-22.857 105.143-58.286 140.571zM789.143 892.571c62.857 0 120-25.143 161.143-66.286 42.286-42.286 67.429-99.429 67.429-162.286s-25.143-121.143-67.429-162.286c-41.143-41.143-98.286-67.429-161.143-67.429-64 0-121.143 26.286-162.286 67.429s-67.429 99.429-67.429 162.286 26.286 120 67.429 162.286c41.143 41.143 98.286 66.286 162.286 66.286zM207.429 896h228.571c8 0 14.857-3.429 19.429-8 5.714-5.714 8-12.571 8-19.429v-409.143c0-6.857-2.286-14.857-8-19.429-4.571-4.571-11.429-8-19.429-8h-402.286c-6.857 0-13.714 3.429-19.429 8-4.571 4.571-8 12.571-8 19.429v235.429c0 56 22.857 105.143 59.429 141.714s85.714 59.429 141.714 59.429zM433.714 866.286h-226.286c-46.857 0-90.286-19.429-121.143-50.286s-50.286-74.286-50.286-121.143v-233.143h397.714v404.571zM207.429-98.286h226.286v404.571h-397.714v-233.143c0-48 19.429-90.286 50.286-121.143s74.286-50.286 121.143-50.286zM436-128h-228.571c-56 0-105.143 22.857-141.714 58.286-36.571 36.571-59.429 86.857-59.429 142.857v234.286c0 8 3.429 14.857 8 20.571 5.714 4.571 12.571 8 19.429 8h402.286c8 0 14.857-3.429 19.429-8 5.714-5.714 8-12.571 8-20.571v-408c0-8-2.286-14.857-8-19.429-4.571-5.714-11.429-8-19.429-8zM816.571-128h-228.571c-8 0-14.857 2.286-20.571 8-4.571 4.571-8 11.429-8 19.429v408c0 8 3.429 14.857 8 20.571 5.714 4.571 12.571 8 20.571 8h401.143c8 0 14.857-3.429 20.571-8 4.571-5.714 8-12.571 8-20.571v-234.286c0-56-22.857-106.286-59.429-142.857-36.571-35.429-86.857-58.286-141.714-58.286zM589.143-98.286h227.429c46.857 0 90.286 19.429 121.143 50.286s50.286 73.143 50.286 121.143v233.143h-398.857v-404.571zM929.714 804.571c-36.571 36.571-85.714 58.286-140.571 58.286-56 0-105.143-21.714-141.714-58.286-35.429-35.429-58.286-85.714-58.286-140.571s22.857-105.143 58.286-140.571c36.571-36.571 85.714-59.429 141.714-59.429 54.857 0 104 22.857 140.571 59.429 35.429 35.429 58.286 85.714 58.286 140.571s-22.857 105.143-58.286 140.571z"  horiz-adv-x="1024" />

    
    <glyph glyph-name="tianjia" unicode="&#58979;" d="M911.73626 703.744128s-11.386307 11.930035-23.812094 3.294353c-15.384308-10.698651-3.102449-28.273863-3.102449-28.273863a473.235382 473.235382 0 0 0 102.572714-294.796602c0-262.54073-212.837581-475.378311-475.394303-475.378311S36.605825 121.443278 36.605825 383.984008C36.605825 646.556722 249.443406 859.394303 512.000128 859.394303a473.043478 473.043478 0 0 0 247.46027-69.437282s17.63918-10.394803 27.634183 2.334833c10.458771 13.321339-3.742129 25.795102-3.742129 25.795103C703.840208 868.877561 613.325465 896 512.000128 896 229.229513 896 0.000128 666.770615 0.000128 384S229.229513-128 512.000128-128 1024.000128 101.229385 1024.000128 384a509.665167 509.665167 0 0 1-112.263868 319.744128zM800.719768 406.292854h-266.426786V672.735632c0 15.592204-9.97901 28.225887-22.292854 28.225887s-22.292854-12.633683-22.292854-28.225887v-266.442778H223.264496c-15.592204 0-28.225887-9.97901-28.225887-22.292854s12.633683-22.292854 28.225887-22.292854h266.442778v-266.426786c0-15.608196 9.97901-28.241879 22.292854-28.241879s22.292854 12.633683 22.292854 28.241879v266.426786h266.426786c15.608196 0 28.241879 9.97901 28.241879 22.292854s-12.649675 22.292854-28.241879 22.292854z"  horiz-adv-x="1024" />

    
    <glyph glyph-name="shuangren" unicode="&#58931;" d="M956.48 32.098064059999956a27.56129063 27.56129063 0 0 0-25.92 18.53419407h-7.30838719c-26.27612906 147.31354875-136.02580688 259.26193594-290.89548375 259.261935v5.14064531c-11.04 6.41032219-18.50322562 18.24-18.50322562 31.91225812s7.46322562 25.4709675 18.50322562 31.89677438V384c92.05161281 0 148.14967781 74.61677438 148.14967781 166.68387094 0 92.06709656-74.60129062 166.66838719-166.66838718 166.66838719V719.22580687a27.56129063 27.56129063 0 0 0-18.50322657 25.90451532 27.56129063 27.56129063 0 0 0 18.50322657 25.92v1.858065c2.47741969 0 4.92387094-0.29419312 7.41677343-0.37161282 0.63483844 0.04645125 1.19225812 0.37161281 1.84258125 0.37161282 1.06838719 0 2.02838719-0.49548375 3.06580594-0.61935469 116.99612906-6.45677438 209.93032219-103.04516156 209.93032313-221.62064531 0-87.25161281-50.41548375-162.51870937-123.54580688-198.92129063 129.22838719-35.69032219 229.76516156-139.57161281 261.02709656-270.51870937 6.34838719-5.07870938 10.65290344-12.58838719 10.65290344-21.35225813a27.76258031 27.76258031 0 0 0-27.74709656-27.778065z m-447.65419313 301.16129063c137.10967781-37.85806406 242.18322563-152.42322563 266.21419313-294.64258031 3.17419312-4.53677438 5.48129062-9.77032219 5.48129062-15.76258125 0-15.3290325-12.4490325-27.76258031-27.778065-27.76258032a27.57677437 27.57677437 0 0 0-25.91999999 18.50322563h-4.21161282C704.24774188 170.01290343999995 571.47354875 291.40645125000003 410.13161281 291.40645125000003c-161.32645125 0-294.11612906-121.39354875-312.46451625-277.79612906h-4.22709656a27.56129063 27.56129063 0 0 0-25.92-18.50322563A27.82451625 27.82451625 0 0 0 39.74193594 22.90064530999996c0 5.96129063 2.29161281 11.19483844 5.49677343 15.73161281 24.0309675 142.26580687 129.07354875 256.78451625 266.18322657 294.67354875-73.16129062 36.38709656-123.54580688 111.63870937-123.54580688 198.89032219 0 122.74064531 99.49935469 222.25548375 222.24 222.25548375s222.24-99.49935469 222.24-222.25548375c0-87.28258031-50.35354875-162.56516156-123.53032219-198.93677437z m-98.69419406 365.57419406c-92.03612906 0-166.68387094-74.61677438-166.68387094-166.68387094 0-92.06709656 74.60129062-166.68387094 166.68387094-166.68387093s166.68387094 74.61677438 166.68387094 166.68387093c0.0309675 92.06709656-74.61677438 166.68387094-166.68387094 166.68387094z"  horiz-adv-x="1024" />

    
    <glyph glyph-name="fabu" unicode="&#58905;" d="M918.741333 452.416a21.333333 21.333333 0 0 1-21.333333-21.333333v-341.333334a128 128 0 0 0-128-128h-554.666667a128 128 0 0 0-128 128v554.666667a128 128 0 0 0 128 128h341.333334a21.333333 21.333333 0 0 1 0 42.666667h-384a128 128 0 0 1-128-128v-640a128 128 0 0 1 128-128h640a128 128 0 0 1 128 128v384a21.333333 21.333333 0 0 1-21.333334 21.333333zM973.674667 842.666667a21.312 21.312 0 0 1-30.165334 0L340.117333 239.274667a21.312 21.312 0 1 1 30.165334-30.165334L973.674667 812.501333a21.312 21.312 0 0 1 0 30.165334z"  horiz-adv-x="1024" />

    
    <glyph glyph-name="location" unicode="&#58886;" d="M512 832.1c-194.5 0-352.1-157.7-352.1-352.1 0-194.5 352.1-544.1 352.1-544.1S864.1 285.6 864.1 480c0 194.4-157.6 352.1-352.1 352.1z m124.8-349.4c-10.4-47-48.4-85.1-95.5-95.5-93.4-20.7-174.8 60.7-154 154.1 10.4 47 48.4 85.1 95.5 95.5 93.3 20.8 174.7-60.6 154-154.1z m0 0"  horiz-adv-x="1024" />

    
    <glyph glyph-name="del" unicode="&#58899;" d="M217.6 538.10000001c-12.59999999 0-22.8-10.2-22.8-22.70000001v-491.30000001c0-48.70000001 39.50000002-88.2 88.2-88.19999998h458.10000001c48.70000001 0 88.2 39.50000002 88.19999998 88.2v489.99999997c0 12.50000001-10.2 22.70000001-22.8 22.70000002-12.59999999 0-22.8-10.2-22.79999998-22.69999999v-490.00000002c0-23.50000002-19.10000001-42.6-42.60000002-42.59999998H283c-23.50000002 0-42.6 19.2-42.6 42.6V515.4c0 12.50000001-10.2 22.70000001-22.8 22.70000001z m392.50000001-0.40000002c-12.59999999 0-22.8-10.29999999-22.80000003-22.89999999V155c0-12.50000001 10.2-22.70000001 22.8-22.70000001 12.59999999 0 22.8 10.2 22.80000001 22.70000001V514.8c0 12.59999999-10.2 22.90000001-22.80000001 22.90000001z m-196.20000002 0c-12.59999999 0-22.8-10.29999999-22.79999998-22.89999999V155c0-12.50000001 10.2-22.70000001 22.79999998-22.70000001 12.59999999 0 22.8 10.2 22.8 22.70000001V514.8c0 12.59999999-10.29999999 22.90000001-22.8 22.90000001zM86.69999999 668.50000001c-12.59999999 0-22.8-10.10000001-22.79999998-22.70000001s10.2-22.90000001 22.79999998-22.89999999h850.70000001c12.59999999 0 22.8 10.29999999 22.80000001 22.89999999 0 12.50000001-10.2 22.70000001-22.80000001 22.69999999H763.90000001v75.40000002c0 48.6-39.2 88.2-87.50000001 88.2h-328c-48.70000001 0-88.2-39.6-88.20000001-88.2v-75.4H86.69999999z m631.6-2e-8H305.8v75.4c0 23.50000002 19.2 42.6 42.6 42.6h327.89999999c23.6 0 42-18.69999999 42-42.6v-75.4z m0 0"  horiz-adv-x="1024" />

    
    <glyph glyph-name="Arrow" unicode="&#58909;" d="M874.4 384l-96.7 96.7-0.1-0.2L431.1 825.8 322.7 717.4 675.4 384 322.7 50.6l108.4-108.4 346.5 345.3 0.1-0.2z"  horiz-adv-x="1024" />

    
    <glyph glyph-name="xiaoXi" unicode="&#58911;" d="M512 818C264.4 818 63.6 642.2 63.6 425.3c0-124 65.7-234.3 168.1-306.3v-123.8s2-65.9 59.7-38.5c61.1 29 136.7 83 136.7 83 27.2-4.5 55.1-7.1 83.8-7.1 247.6 0 448.4 175.8 448.4 392.7C960.4 642.2 759.6 818 512 818zM287.8 369.20000000000005c-31 0-56 25.1-56 56.1s25.1 56.1 56 56.1c31 0 56-25.1 56-56.1 0.1-31-25-56.1-56-56.1z m224.2 0c-31 0-56 25.1-56 56.1s25.1 56.1 56 56.1c31 0 56-25.1 56-56.1s-25-56.1-56-56.1z m224.2 0c-31 0-56 25.1-56 56.1s25.1 56.1 56 56.1c31 0 56-25.1 56-56.1s-25.1-56.1-56-56.1z m0 0"  horiz-adv-x="1024" />

    
    <glyph glyph-name="fabu--" unicode="&#58987;" d="M512 814.4C274.3 814.4 81.6 621.7 81.6 384S274.3-46.4 512-46.4 942.4 146.3 942.4 384 749.7 814.4 512 814.4z m0-815.2c-213.6 0-386.7 172.3-386.7 384.8S298.4 768.8 512 768.8 898.7 596.5 898.7 384 725.6-0.8 512-0.8zM522 194.1h-20c-7.1 0-13 5.8-13 13V560.9c0 7.1 5.8 13 13 13h19.9c7.2 0 13-5.9 13-13v-353.8c0.1-7.1-5.8-13-12.9-13zM701.9 394v-20c0-7.2-5.8-13-13-13H335.1c-7.1 0-13 5.8-13 13v20c0 7.1 5.8 13 13 13h353.8c7.1 0 13-5.9 13-13z"  horiz-adv-x="1024" />

    
    <glyph glyph-name="wode1" unicode="&#59090;" d="M516.9152 822.3744c101.853867 0 184.797867-84.036267 184.797867-187.2896s-82.944-187.2896-184.797867-187.2896c-101.922133 0-184.797867 84.036267-184.797867 187.2896s82.875733 187.2896 184.797867 187.2896m0 43.8272c-126.190933 0-228.6592-103.389867-228.6592-231.1168 0-127.7952 102.468267-231.150933 228.6592-231.150933 126.122667 0 228.590933 103.355733 228.590933 231.150933 0 127.726933-102.468267 231.1168-228.590933 231.1168z m0 0M517.256533 273.373867c220.910933 0 379.016533-100.1472 422.877867-267.946667 3.822933-14.779733 0.785067-30.1056-8.3968-41.984a44.8512 44.8512 0 0 0-36.283733-17.783467H138.8544c-14.7456 0-28.398933 6.690133-37.5808 18.363734a42.120533 42.120533 0 0 0-8.192 36.386133c42.018133 170.939733 200.6016 272.964267 424.174933 272.964267m0 43.8272c-226.986667 0-417.0752-104.413867-466.7392-306.3808-13.687467-55.739733 30.9248-109.021867 88.337067-109.021867h756.565333c59.835733 0 102.1952 56.866133 87.108267 114.756267-51.848533 198.212267-240.4352 300.6464-465.271467 300.6464z m0 0"  horiz-adv-x="1033" />

    
    <glyph glyph-name="shangchuantupian" unicode="&#58916;" d="M512 831.8C264.7 831.8 64.2 631.3 64.2 384s200.4-447.8 447.7-447.8c247.3 0 447.8 200.5 447.8 447.8 0.1 247.3-200.4 447.8-447.7 447.8z m0-875.8C275.6-44 84 147.6 84 384S275.6 812 512 812s428-191.6 428-428-191.6-428-428-428z m0 0M722.5 404H531.9V594.5c0 11-8.9 19.9-19.9 19.9-11 0-19.9-8.9-19.9-19.9V404H301.5c-11 0-20-8.9-20-19.9 0-11 8.9-19.9 20-19.9h190.6v-190.5c0-11 8.9-20 19.9-20 11 0 19.9 8.9 19.9 20V364.1h190.6c11 0 19.9 8.9 19.9 19.9 0 11-8.9 20-19.9 20z m0 0"  horiz-adv-x="1024" />

    
    <glyph glyph-name="tianjiaxiugai" unicode="&#58930;" d="M64.1 86c0-82 67.1-149.1 149.1-149.1h89.5v74.6h-74.6c-49.2 0-89.5 41.4-89.5 92.1v72H64.1V86z m74.6 579c0 50.7 40.3 92.1 89.5 92.1h74.6V831.7h-89.5c-82 0-149.1-67.1-149.1-149.1V593h74.6v72z m820.2-72v89.5c0 82-67.1 149.1-149.1 149.1h-89.5V757h74.6c49.2 0 89.5-41.4 89.5-92.1v-72h74.5z m-74.6-489.5c0-50.7-40.3-92.1-89.5-92.1h-74.6v-74.6h89.5c82 0 149.1 67.1 149.1 149.1v89.5h-74.6v-71.9z m0 0M675.6 443.9H571.2V548.3c0 32.8-26.8 59.7-59.7 59.7-32.8 0-59.7-26.8-59.7-59.7v-104.4H347.5c-32.8 0-59.7-26.8-59.7-59.7 0-32.8 26.8-59.7 59.7-59.7h104.4v-104.4c0-32.8 26.8-59.7 59.7-59.7 32.8 0 59.7 26.8 59.7 59.7V324.6h104.4c32.8 0 59.7 26.8 59.7 59.7-0.2 32.8-27 59.6-59.8 59.6z m0 0"  horiz-adv-x="1024" />

    


  </font>
</defs>
</svg>
